{
  "accessors": [
    {
      "bufferView": 2,
      "componentType": 5126,
      "count": 5984,
      "max": [
        1.403469204902649,
        8.141332626342773,
        2.2381691932678223
      ],
      "min": [
        -1.403469204902649,
        -4.012628555297852,
        -0.31827986240386963
      ],
      "type": "VEC3"
    },
    {
      "bufferView": 2,
      "byteOffset": 71808,
      "componentType": 5126,
      "count": 5984,
      "max": [
        1.0,
        0.9987805485725403,
        0.9995707273483276
      ],
      "min": [
        -1.0,
        -0.9968667030334473,
        -0.9993593692779541
      ],
      "type": "VEC3"
    },
    {
      "bufferView": 1,
      "componentType": 5126,
      "count": 5984,
      "max": [
        0.9970703125,
        0.998046875
      ],
      "min": [
        0.0029296879656612873,
        0.001953125
      ],
      "type": "VEC2"
    },
    {
      "bufferView": 0,
      "componentType": 5125,
      "count": 18471,
      "type": "SCALAR"
    }
  ],
  "asset": {
    "extras": {
      "author": "Khyoocumber (https://sketchfab.com/Khyoocumber)",
      "license": "CC-BY-4.0 (http://creativecommons.org/licenses/by/4.0/)",
      "source": "https://sketchfab.com/3d-models/lowpoly-textured-chinese-dragon-4021eb82c1964cb8bd7618a8b4117d8c",
      "title": "Lowpoly textured Chinese Dragon"
    },
    "generator": "Sketchfab-15.33.0",
    "version": "2.0"
  },
  "bufferViews": [
    {
      "buffer": 0,
      "byteLength": 73884,
      "name": "floatBufferViews",
      "target": 34963
    },
    {
      "buffer": 0,
      "byteLength": 47872,
      "byteOffset": 73884,
      "byteStride": 8,
      "name": "floatBufferViews",
      "target": 34962
    },
    {
      "buffer": 0,
      "byteLength": 143616,
      "byteOffset": 121756,
      "byteStride": 12,
      "name": "floatBufferViews",
      "target": 34962
    }
  ],
  "buffers": [
    {
      "byteLength": 265372,
      "uri": "scene.bin"
    }
  ],
  "extensionsUsed": [
    "KHR_materials_unlit"
  ],
  "images": [
    {
      "uri": "textures/Mnupao_10002_Mnupao_T_10002_baseColor.png"
    }
  ],
  "materials": [
    {
      "doubleSided": true,
      "extensions": {
        "KHR_materials_unlit": {}
      },
      "name": "Mnupao_10002_Mnupao_T_10002",
      "pbrMetallicRoughness": {
        "baseColorTexture": {
          "index": 0
        },
        "metallicFactor": 0.0
      }
    }
  ],
  "meshes": [
    {
      "name": "Mnupao_10002_Mnupao_M_10002_Mnupao_10002_Mnupao_T_10002_0",
      "primitives": [
        {
          "attributes": {
            "NORMAL": 1,
            "POSITION": 0,
            "TEXCOORD_0": 2
          },
          "indices": 3,
          "material": 0,
          "mode": 4
        }
      ]
    }
  ],
  "nodes": [
    {
      "children": [
        1
      ],
      "matrix": [
        1.0,
        0.0,
        0.0,
        0.0,
        0.0,
        2.220446049250313e-16,
        -1.0,
        0.0,
        0.0,
        1.0,
        2.220446049250313e-16,
        0.0,
        0.0,
        0.0,
        0.0,
        1.0
      ],
      "name": "Sketchfab_model"
    },
    {
      "children": [
        2
      ],
      "matrix": [
        0.009999999776482582,
        0.0,
        0.0,
        0.0,
        0.0,
        0.0,
        0.009999999776482582,
        0.0,
        0.0,
        -0.009999999776482582,
        0.0,
        0.0,
        0.0,
        0.0,
        0.0,
        1.0
      ],
      "name": "Mnupao_10002.fbx"
    },
    {
      "children": [
        3
      ],
      "name": "RootNode"
    },
    {
      "children": [
        4
      ],
      "matrix": [
        2.220446049250313e-16,
        5.551115123125783e-17,
        -1.0,
        0.0,
        -0.9999999999999911,
        1.331580542496269e-07,
        -1.6653345369377348e-16,
        0.0,
        1.3315805419411575e-07,
        0.9999999999999911,
        1.1102230246251565e-16,
        0.0,
        0.0,
        0.0,
        0.0,
        1.0
      ],
      "name": "Mnupao_10002_Mnupao_M_10002"
    },
    {
      "mesh": 0,
      "name": "Mnupao_10002_Mnupao_M_10002_Mnupao_10002_Mnupao_T_10002_0"
    }
  ],
  "samplers": [
    {
      "magFilter": 9729,
      "minFilter": 9987,
      "wrapS": 10497,
      "wrapT": 10497
    }
  ],
  "scene": 0,
  "scenes": [
    {
      "name": "Sketchfab_Scene",
      "nodes": [
        0
      ]
    }
  ],
  "textures": [
    {
      "sampler": 0,
      "source": 0
    }
  ]
}
